<svg id="a7e60a15-b949-460d-9c0d-a87f59270aab" data-name="Layer 1" xmlns="http://www.w3.org/2000/svg" width="865.76" height="682.89" viewBox="0 0 865.76 682.89"><polygon points="415.89 567.04 151.15 567.04 136.66 141.27 401.4 141.27 415.89 567.04" fill="#ccc"/><polygon points="429.11 553.82 164.36 553.82 149.86 128.05 414.6 128.05 429.11 553.82" fill="#131111"/><ellipse cx="286.38" cy="250.15" rx="73.21" ry="75.75" transform="translate(-92.77 279.01) rotate(-45.49)" fill="#131111"/><path d="M347.86,250.17a59.69,59.69,0,0,1-6.44,29.27,58.89,58.89,0,0,1-52.94,32.18,63.91,63.91,0,0,1-55.12-32.18,62.46,62.46,0,0,1-8.42-29.27,59,59,0,0,1,56.4-61.48c1,0,2-.06,3-.05A64.06,64.06,0,0,1,347.86,250.17Z" fill="#fff"/><path d="M341.39,279.44a58.92,58.92,0,0,1-52.95,32.18,63.89,63.89,0,0,1-55.11-32.18,94.26,94.26,0,0,1,53.51-16.39A99.71,99.71,0,0,1,341.39,279.44Z" fill="#131111"/><ellipse cx="285.68" cy="229.11" rx="26.92" ry="27.85" transform="translate(-77.97 272.22) rotate(-45.49)" fill="#131111"/><polygon points="375.92 399.63 207.04 399.63 205.9 366.07 374.78 366.07 375.92 399.63" fill="#fff"/><polygon points="377.97 459.61 209.07 459.61 207.93 426.05 376.83 426.05 377.97 459.61" fill="#fff"/><path d="M312.79,430.68l-40.7,5.59a2.84,2.84,0,0,0-2.5,3.14,1.55,1.55,0,0,0,0,.21L275,466.9a3.27,3.27,0,0,0,3.61,2.55l40.7-5.59a2.86,2.86,0,0,0,2.48-3.19l0-.18-5.34-27.28A3.24,3.24,0,0,0,312.79,430.68ZM301.1,458.31l-7.46,1-.73-8.8a5.21,5.21,0,0,1-3-3.72,4.65,4.65,0,0,1,3.56-5.52l.47-.08a5.32,5.32,0,0,1,5.89,4.16,4.55,4.55,0,0,1-1.45,4.34Z" fill="#d1d3d4"/><path d="M308.76,429.2h0a2.92,2.92,0,0,1-3.21-2.25l-.52-2.67A15.35,15.35,0,0,0,289,412.05a13,13,0,0,0-12,15.64l.59,3.08a2.5,2.5,0,0,1-1.95,3l-.23,0h0a2.86,2.86,0,0,1-3.2-2.25l-.51-2.6a18.36,18.36,0,0,1,14.17-21.76l.75-.14a20.87,20.87,0,0,1,23.86,16.16l.6,3.06a2.5,2.5,0,0,1-2,2.94Z" fill="#d1d3d4"/><polygon points="350.09 506.61 240.15 506.61 239.42 484.76 349.35 484.76 350.09 506.61" fill="#d1d3d4"/><path d="M297.05,382.85a5.88,5.88,0,0,1-5.64,6.13h-.29a6.4,6.4,0,0,1-6.35-6.14,5.88,5.88,0,0,1,5.64-6.12h.28A6.4,6.4,0,0,1,297.05,382.85Z" fill="#131111"/><path d="M270.54,382.85a5.87,5.87,0,0,1-5.61,6.13h-.32a6.4,6.4,0,0,1-6.34-6.14,5.89,5.89,0,0,1,5.65-6.12h.28A6.37,6.37,0,0,1,270.54,382.85Z" fill="#131111"/><path d="M323.47,382.85a5.88,5.88,0,0,1-5.64,6.13h-.29a6.38,6.38,0,0,1-6.34-6.14,5.87,5.87,0,0,1,5.67-6.07h.28A6.37,6.37,0,0,1,323.47,382.85Z" fill="#131111"/><path d="M349.89,382.85a5.88,5.88,0,0,1-5.61,6.13H344a6.4,6.4,0,0,1-6.34-6.14,5.88,5.88,0,0,1,5.65-6.12h.28A6.38,6.38,0,0,1,349.89,382.85Z" fill="#131111"/><path d="M572.4,218.83c2.48,4,4.55,7.79,6.68,11.76s4,8,5.93,12a171.8,171.8,0,0,1,9.5,25.6c.34,1.1.58,2.28.86,3.41l.41,1.74.21.86.24,1.41a25.55,25.55,0,0,1-.58,9.62,54.29,54.29,0,0,1-5.81,13.89,110.57,110.57,0,0,1-16.56,21.68l-7.85-5.92a208.07,208.07,0,0,0,10.5-22.38,46.41,46.41,0,0,0,2.85-10.49,8.34,8.34,0,0,0-.15-3.3l-.75-2.28c-.29-.93-.57-1.86-.93-2.81a210.08,210.08,0,0,0-9.82-22.52c-3.73-7.46-7.74-14.92-11.75-22Z" fill="#f9b499"/><path d="M567.43,312.32l-8.58,4.53,9.84,11.53s6.16-4.16,6.44-10.5Z" fill="#f9b499"/><polygon points="547.35 323.96 557.88 332.33 568.69 328.38 558.85 316.86 547.35 323.96" fill="#f9b499"/><path d="M507.13,196.19V184l16.18,1.87s-.26,10.51-9.32,13.61Z" fill="#f9b499"/><polygon points="511.79 175.16 523.18 178.44 523.39 185.92 507.21 183.96 511.79 175.16" fill="#f9b499"/><path d="M523.18,178.44l-11.39-3.28-2.22,4.25a18.16,18.16,0,0,0,10.52,15.81,17.78,17.78,0,0,0,3.3-9.32Z" fill="#f4a48e" style="isolation:isolate"/><path d="M540.11,176.69c-1.86,9.6-3,22.89,3.73,29.29,0,0-2.61,9.73-20.51,9.73-19.59,0-9.41-8.54-9.41-8.54,8.14-2.53,8.07-11.8,6.21-19.26Z" fill="#f9b499"/><path d="M547.48,212.39c1.75-2.46,1.67-10.27-.19-11.65-3-2.22-15.88-2.74-33.2,1.25,1.86,7.57-2.15,11.52-2.15,11.52Z" fill="#0071f2"/><polygon points="528.9 656.55 512.52 656.55 510.89 626.17 527.27 626.17 528.9 656.55" fill="#f9b499"/><polygon points="625.7 650.47 609.46 653.25 593.13 624.96 609.39 622.19 625.7 650.47" fill="#f9b499"/><path d="M609.5,652l14.42-3.11a1.12,1.12,0,0,1,1.26.63l5,10.85a1.86,1.86,0,0,1-.82,2.51,1.84,1.84,0,0,1-.56.18c-5,1-7.55,1.23-13.87,2.59-3.9.85-12.7,3-18.08,4.15s-7.24-4-5.13-5c9.41-4.31,13.33-8.1,15.88-11.62A3.17,3.17,0,0,1,609.5,652Z" fill="#0071f2"/><path d="M514.29,655h14.32a1.15,1.15,0,0,1,1.12.89l2.59,11.65a1.86,1.86,0,0,1-1.32,2.29,1.66,1.66,0,0,1-.55.06c-5.16-.09-12.62-.39-19.11-.39-7.6,0-14.15.41-23.06.41-5.39,0-6.88-5.44-4.62-5.94,10.25-2.24,18.64-2.48,27.5-8A6.13,6.13,0,0,1,514.29,655Z" fill="#0071f2"/><path d="M567.29,209c12.29,2.82,22.38,34.19,22.38,34.19L565.11,262a54,54,0,0,1-13.05-24.24C547.72,221.27,554.73,206.07,567.29,209Z" fill="#0071f2"/><path d="M502.66,246.4c-3.06,3.3-6.12,6.25-9.33,9.32-1.58,1.49-3.18,3-4.82,4.42L486,262.32l-.62.54-1.06.86a15.39,15.39,0,0,1-3.6,2.13,11.86,11.86,0,0,1-4.55.93,11.34,11.34,0,0,1-3.91-.69,11,11,0,0,1-6.64-7.2,12.44,12.44,0,0,1-.54-2.78,18.41,18.41,0,0,1,0-3.32,23.74,23.74,0,0,1,.35-2.4,47.14,47.14,0,0,1,2.16-7.46,69.17,69.17,0,0,1,2.89-6.75c1.2-2.36,2.34-4.1,3.47-6.07a151.71,151.71,0,0,1,15.76-21.37,143.64,143.64,0,0,1,19.11-18.12l6.86,7.06c-4.81,6.45-9.55,13.37-13.93,20.18a217.73,217.73,0,0,0-11.93,21c-.8,1.75-1.87,3.73-2.37,5.15a46.63,46.63,0,0,0-1.73,5,33,33,0,0,0-1.07,4.7c0,.25,0,.5,0,.74v-.16a5.06,5.06,0,0,0-.24-1.23,7.93,7.93,0,0,0-2.14-3.47,9.1,9.1,0,0,0-3.08-1.87,8.8,8.8,0,0,0-3.13-.57,7.52,7.52,0,0,0-3,.57,6.23,6.23,0,0,0-.93.47l.7-.65,2.26-2,4.46-4.18c2.94-2.78,5.91-5.74,8.7-8.5Z" fill="#f9b499"/><path d="M556.76,232c6.68,6.6,8.86,18.64,9.32,29.08L565,262a54,54,0,0,1-13-24.24c-.24-1-.47-1.86-.63-2.93Z" opacity="0.2" style="isolation:isolate"/><path d="M489.62,222c-2.68,14.17-4.36,43.27,3.42,100.88h70.21c.48-10.75-6.28-63.29,4.1-114a185.5,185.5,0,0,0-23.49-3,260.4,260.4,0,0,0-29.83,0c-3.28.3-6.53.79-9.32,1.29A18.65,18.65,0,0,0,489.62,222Z" fill="#0071f2"/><path d="M500.36,243l-12.67-3c-.4,7.69-.43,17.19.13,29C493.65,262.32,501.11,252,500.36,243Z" opacity="0.2" style="isolation:isolate"/><path d="M546.34,162.67c-3.36,12.57-4.7,20.1-12.45,25.32-11.66,7.94-26.2-1.16-26.57-14.43-.41-12,5.16-30.54,18.64-33.08a17.75,17.75,0,0,1,20.38,22.19Z" fill="#f9b499"/><path d="M516.92,163.14c-.63-1.68-3.52-14.68-.8-18s33.76-.93,38.35,3.58c7.62,7.46,2.33,14.17-6,22.8-6.26,6.49-6.5,13.8-9.67,14.92-5.59,1.86-14.13.11-15.85-5.8S516.92,163.14,516.92,163.14Z" fill="#131111"/><path d="M550.7,133.88c-11-4.66-31.52.51-42.64-2.18a17.11,17.11,0,0,0,14.19,17.45,145.81,145.81,0,0,0,28,2.59C562.41,151.19,560,137.86,550.7,133.88Z" fill="#131111"/><path d="M522.89,163.66a14.82,14.82,0,0,1-3.73,8.7c-2.87,3.16-5.86,1.18-6.36-2.64-.45-3.47.48-9.32,4-11S523.13,159.76,522.89,163.66Z" fill="#f9b499"/><path d="M517.93,323S532.84,423.18,541,460.73c8.93,41.11,56.92,177.12,56.92,177.12l23.47-5.09s-33.56-110.86-41-168.34c-5.78-44.15-17.13-141.49-17.13-141.49Z" fill="#131111"/><path d="M527.34,358.67c17.21,3.38,15.38,67.55,13.31,100.57-5-23.34-12.23-68.24-17.19-100.1A5.91,5.91,0,0,1,527.34,358.67Z" opacity="0.3" style="isolation:isolate"/><path d="M493,323s-1.87,98-.38,138c1.49,41.6,16,177.79,16,177.79H530.9s.8-133.77,1.87-174.62c1.08-44.52,6.45-141.2,6.45-141.2Z" fill="#131111"/><path d="M517.11,226.39c6.28,17-30.65,36.92-30.65,36.92l-16-20.51s10.76-21.29,23.81-30.87C510.39,200.11,512.31,213.49,517.11,226.39Z" fill="#0071f2"/><ellipse cx="661.82" cy="54.85" rx="67.29" ry="42.88" fill="#131111"/><path d="M637.55,76.44A18.85,18.85,0,0,1,619,60.8a19.06,19.06,0,0,1,14.38-21.48h0a18.77,18.77,0,0,1,20.17,8.43l43.2-8.91a6.74,6.74,0,0,1,7.9,4.64,6.5,6.5,0,0,1-4.63,8l-.35.09-1.11.22a1.1,1.1,0,0,0-.79.58,1.17,1.17,0,0,0,0,1l.77,2a3,3,0,0,1-1.16,3.6,3.53,3.53,0,0,0-1.66,2.63,2.92,2.92,0,0,1-2.25,2.59l-.88.19a2.93,2.93,0,0,1-3.1-1.49,3.62,3.62,0,0,0-5-1.27,3.67,3.67,0,0,0-1.75,2.66,2.88,2.88,0,0,1-2.23,2.58l-.88.18a2.9,2.9,0,0,1-3.09-1.49,3.78,3.78,0,0,0-2.6-1.75,3,3,0,0,1-2.61-2.93V58.64a1.15,1.15,0,0,0-1.2-1.1.55.55,0,0,0-.18,0l-13.77,2.83A18.79,18.79,0,0,1,641.4,76.05,19.2,19.2,0,0,1,637.55,76.44ZM633.82,41a17.17,17.17,0,0,0-13.05,19.43,17,17,0,0,0,33.55-1v-.67l15.2-3.08A3,3,0,0,1,673.17,58a4.25,4.25,0,0,1,.08.61v2.13a1.1,1.1,0,0,0,.89,1.06,5.44,5.44,0,0,1,3.94,2.67,1.07,1.07,0,0,0,1.1.59l.85-.18a1.05,1.05,0,0,0,.79-1,5.5,5.5,0,0,1,10.25-2.17,1.07,1.07,0,0,0,1.08.6l.9-.18a1,1,0,0,0,.76-1,5.41,5.41,0,0,1,2.56-4,1.15,1.15,0,0,0,.39-1.35l-.77-2a3,3,0,0,1,1.72-3.89,3.79,3.79,0,0,1,.48-.14l1.14-.24a4.68,4.68,0,0,0,3.6-5.55.85.85,0,0,0,0-.17,4.85,4.85,0,0,0-5.74-3.3l-44.41,9.22-.34-.57a16.76,16.76,0,0,0-18.49-8.11Zm3.73,28.49a11.88,11.88,0,1,1,10-5.3A11.93,11.93,0,0,1,640,69.36h0a12.12,12.12,0,0,1-2.41.18Zm0-22a11,11,0,0,0-2.07.2,10.11,10.11,0,1,0,4.21,19.78h0a10.08,10.08,0,0,0,3.5-18.29,9.93,9.93,0,0,0-5.57-1.65Z" fill="#fff"/><ellipse cx="607.06" cy="108.79" rx="22.11" ry="14.09" fill="#131111"/><ellipse cx="571.88" cy="122.88" rx="9.08" ry="5.78" fill="#131111"/></svg>